<svg xmlns="http://www.w3.org/2000/svg" viewBox="0 0 180 180" role="img" aria-label="New Hero portrait">
  <rect width="180" height="180" rx="24" fill="#162032"/>
  <circle cx="90" cy="72" r="39" fill="#e7a86f"/>
  <path d="M50 64c10-35 67-41 82-8-25-13-54-13-82 8Z" fill="#5b351d"/>
  <path d="M49 70c16-22 63-33 82-9-3-26-29-43-56-33-19 7-28 22-26 42Z" fill="#6b3d21"/>
  <path d="M42 170c5-43 23-65 48-65s43 22 48 65H42Z" fill="#315a8c"/>
  <path d="M60 170c5-30 15-46 30-46s25 16 30 46H60Z" fill="#f6d85f"/>
  <path d="M55 120c18 18 50 18 68 0" fill="none" stroke="#58a6ff" stroke-width="10" stroke-linecap="round"/>
  <circle cx="75" cy="77" r="5" fill="#24120b"/>
  <circle cx="105" cy="77" r="5" fill="#24120b"/>
  <path d="M76 99c9 8 21 8 30 0" fill="none" stroke="#8b3a35" stroke-width="5" stroke-linecap="round"/>
</svg>
